<?xml version="1.0" encoding="utf-8"?>
<!-- Generator: Adobe Illustrator 16.0.0, SVG Export Plug-In . SVG Version: 6.00 Build 0)  -->
<!DOCTYPE svg PUBLIC "-//W3C//DTD SVG 1.1//EN" "http://www.w3.org/Graphics/SVG/1.1/DTD/svg11.dtd">
<svg version="1.1" id="Layer_2" xmlns="http://www.w3.org/2000/svg" xmlns:xlink="http://www.w3.org/1999/xlink" x="0px" y="0px"
	 width="432px" height="115px" viewBox="0 0 432 115" enable-background="new 0 0 432 115" xml:space="preserve">
<g>
	<path fill="none" d="M335.649,69.071c0.117-0.059,0.238-0.119,0.358-0.177c0.152,0.202,0.303,0.408,0.462,0.608
		c1.519,1.921,3.42,3.4,5.433,4.759c10.649,7.198,26.073,6.349,35.73-3.16c4.88-4.804,7.801-10.504,8.273-17.323
		c0.671-9.648-2.951-17.521-10.339-23.679c-11.386-9.488-30.113-8.242-39.353,3.524c-0.092,0.117-0.271,0.166-0.57,0.342
		c0-0.631,0-1.104,0-1.579c0-7.966,0.004-15.933-0.008-23.898c0-0.525-0.035-1.055-0.119-1.573c-0.13-0.792-0.617-1.264-1.431-1.298
		c-0.879-0.036-1.76-0.032-2.639-0.006c-0.807,0.024-1.32,0.464-1.481,1.25c-0.097,0.469-0.151,0.955-0.151,1.433
		c-0.012,22.227-0.012,44.452-0.005,66.68c0.005,0.479,0.061,0.963,0.147,1.435c0.164,0.854,0.723,1.285,1.58,1.303
		c0.836,0.015,1.675,0.02,2.509-0.014c0.811-0.025,1.319-0.471,1.461-1.262c0.094-0.516,0.125-1.047,0.129-1.57
		C335.658,72.933,335.649,71.003,335.649,69.071z M11.36,53.472c0.621,0,1.142,0,1.664,0c14.303,0,28.607,0.003,42.911-0.002
		c1.967,0,2.497-0.546,2.522-2.495c0.033-2.523-0.305-4.998-0.989-7.423c-1.851-6.563-5.879-11.534-11.431-15.307
		c-9.29-6.312-22.28-5.62-30.85,1.555C9.176,34.831,5.71,41.184,5.168,48.991c-0.596,8.584,2.208,15.981,8.279,22.125
		c4.813,4.871,10.584,7.699,17.453,7.887c9.25,0.252,16.604-3.566,22.074-10.967c1.085-1.469,1.892-3.164,2.67-4.83
		c0.759-1.622,0.029-2.676-1.725-2.728c-0.66-0.02-1.321,0.011-1.981-0.007c-0.98-0.021-1.616,0.413-2.12,1.271
		c-0.843,1.435-1.686,2.896-2.738,4.175c-5.185,6.296-12.531,8.897-20.42,6.804c-6.935-1.843-11.315-6.623-13.928-13.146
		C11.964,57.661,11.449,55.673,11.36,53.472z M97.033,31.095c0-7.738,0-15.176-0.001-22.615c0-0.396,0.024-0.795-0.018-1.188
		c-0.102-0.947-0.647-1.563-1.597-1.644c-0.873-0.076-1.764-0.077-2.636,0.007c-0.939,0.09-1.477,0.719-1.573,1.667
		c-0.035,0.349-0.016,0.704-0.016,1.056c0,22.229,0,44.459,0,66.689c0,0.396-0.005,0.793,0.022,1.187
		c0.054,0.806,0.484,1.371,1.282,1.438c1.044,0.086,2.104,0.09,3.149,0.016c0.855-0.063,1.324-0.633,1.371-1.504
		c0.021-0.395,0.014-0.791,0.014-1.188c0.003-8.892-0.034-17.782,0.038-26.676c0.018-2.186,0.187-4.416,0.641-6.55
		c0.969-4.563,3.946-7.646,7.92-9.849c4.528-2.511,9.388-2.912,14.337-1.854c6.009,1.284,10.25,4.821,12.46,10.632
		c0.949,2.495,1.289,5.124,1.306,7.768c0.057,8.756,0.04,17.517,0.052,26.279c0.001,0.354-0.025,0.707,0.009,1.058
		c0.132,1.346,0.665,1.89,1.996,1.976c0.7,0.045,1.412,0.045,2.109-0.024c1.17-0.117,1.528-0.479,1.716-1.628
		c0.064-0.388,0.071-0.786,0.071-1.183c0.004-8.188,0.021-16.374-0.007-24.563c-0.011-3.083-0.287-6.144-0.922-9.174
		c-1.455-6.945-5.32-12.074-11.792-14.905c-7.612-3.33-15.372-3.296-23.042,0.034C101.412,27.448,99.18,28.985,97.033,31.095z
		 M191.605,79.038c15.42-0.006,27.843-12.314,27.887-27.633c0.045-15.268-12.315-27.498-27.794-27.502
		c-15.367-0.007-27.449,12.242-27.485,27.786C164.177,66.823,177.034,79.257,191.605,79.038z M322.084,51.315
		c0.263-15.01-12.312-27.605-27.749-27.512c-15.437,0.097-27.413,12.165-27.487,27.792c-0.074,15.076,12.631,27.485,27.447,27.476
		C309.525,79.061,322.381,66.3,322.084,51.315z M406.959,79.12c1.133-0.121,2.289-0.146,3.397-0.385
		c6.709-1.445,11.479-5.199,13.479-11.91c1.813-6.055-0.181-11.782-5.152-15.586c-2.841-2.181-6.104-3.438-9.502-4.417
		c-2.613-0.754-5.269-1.41-7.624-2.857c-1.34-0.823-2.373-1.958-2.525-3.521c-0.159-1.599-0.247-3.293,0.107-4.835
		c0.986-4.263,5.085-6.753,9.584-6.17c3.243,0.421,5.433,2.098,6.555,5.153c0.271,0.739,0.482,1.504,0.654,2.274
		c0.69,3.11,0.683,3.112,3.887,3.073c0.265-0.003,0.528,0.011,0.789-0.031c1.063-0.175,1.64-0.828,1.582-1.909
		c-0.039-0.742-0.175-1.483-0.32-2.214c-0.789-3.893-2.525-7.25-5.892-9.5c-8.47-5.664-21.044-1.404-22.854,9.925
		c-0.864,5.411,0.645,10.025,5.32,13.273c2.048,1.418,4.396,2.16,6.766,2.868c2.564,0.764,5.176,1.43,7.652,2.424
		c6.821,2.738,6.754,9.795,4.02,13.657c-1.969,2.788-4.598,4.57-8.05,4.95c-5.582,0.617-10.231-1.713-12.322-6.934
		c-0.624-1.555-0.768-3.313-1.011-4.998c-0.202-1.4-0.686-1.967-2.089-2.006c-0.703-0.021-1.408-0.024-2.11,0.004
		c-1.438,0.063-1.913,0.522-1.886,1.943c0.019,0.921,0.118,1.844,0.256,2.755C391.017,72.94,398.068,79.007,406.959,79.12z
		 M253.154,34.676c0,7.305,0.002,14.612-0.002,21.916c-0.002,1.541-0.023,3.08-0.053,4.621c-0.065,3.672-1.492,6.706-4.213,9.179
		c-2.998,2.729-6.56,3.354-10.431,2.98c-3.379-0.324-6.119-1.799-8.153-4.521c-1.281-1.713-2.086-3.661-2.604-5.724
		c-0.255-1.02-0.826-1.662-1.878-1.741c-0.875-0.063-1.766-0.082-2.637,0c-1.233,0.116-1.908,1.006-1.684,2.205
		c1.07,5.664,3.934,10.126,9.021,12.965c4.843,2.704,10.002,3.149,15.317,1.739c6.47-1.721,10.568-5.846,12.271-12.322
		c0.818-3.126,1.07-6.314,1.068-9.542c-0.013-16.018-0.006-32.037-0.006-48.056c0-0.352,0.021-0.708-0.018-1.055
		c-0.125-1.076-0.728-1.662-1.813-1.72c-0.788-0.042-1.587-0.04-2.375,0c-1.002,0.05-1.521,0.497-1.733,1.489
		c-0.09,0.424-0.082,0.872-0.082,1.31C253.152,17.16,253.154,25.918,253.154,34.676z M74.293,33.517c0-0.63,0-1.067,0-1.505
		c0-2.685,0.007-5.369-0.003-8.053c-0.007-1.935-0.573-2.481-2.539-2.5c-0.352-0.003-0.704-0.007-1.056,0.001
		c-1.625,0.041-2.236,0.63-2.246,2.237c-0.017,2.596-0.005,5.192-0.005,7.789c0,0.646,0,1.292,0,2.031
		c-1.187,0-2.235-0.007-3.282,0.001c-1.884,0.015-2.443,0.567-2.467,2.422c-0.003,0.264-0.002,0.529,0,0.792
		c0.017,1.888,0.535,2.399,2.461,2.413c1.078,0.008,2.154,0.002,3.288,0.002c0,0.683,0,1.163,0,1.642c0,11.354,0,22.707,0,34.058
		c0,0.354-0.015,0.705,0.006,1.057c0.079,1.327,0.53,1.795,1.878,1.877c0.701,0.043,1.409,0.035,2.111-0.008
		c1.078-0.066,1.603-0.527,1.794-1.58c0.078-0.426,0.058-0.875,0.058-1.313c0.002-11.396,0.001-22.792,0.001-34.19
		c0-0.473,0-0.947,0-1.542c0.402,0,0.697,0,0.992,0c2.772,0,5.546-0.071,8.316,0.017c3.474,0.111,3.376-1.116,3.309-3.737
		c-0.002-0.086-0.032-0.172-0.05-0.258c-0.249-1.181-0.665-1.571-1.875-1.636c-0.877-0.046-1.759-0.016-2.64-0.018
		C79.713,33.516,77.082,33.517,74.293,33.517z M156.519,51.426c0-3.609,0-7.219,0-10.828c0-4.445,0.013-8.89-0.008-13.335
		c-0.007-1.486-0.663-2.063-2.244-2.107c-2.735-0.077-3.456,0.319-3.598,1.979c-0.011,0.131-0.004,0.264-0.005,0.396
		c0,0.176,0,0.352,0,0.528c0,15.624-0.002,31.248,0.008,46.872c0,0.563,0.067,1.141,0.199,1.688c0.157,0.653,0.613,1.082,1.31,1.109
		c0.919,0.038,1.849,0.096,2.761,0.004c1.09-0.104,1.432-0.525,1.544-1.617c0.045-0.438,0.032-0.879,0.032-1.315
		C156.52,67.005,156.519,59.216,156.519,51.426z M159.354,13.026c-0.017-3.129-2.596-5.706-5.716-5.709
		c-3.189-0.004-5.804,2.615-5.777,5.789c0.026,3.13,2.605,5.699,5.727,5.703C156.792,18.813,159.371,16.227,159.354,13.026z"/>
	<path fill="#0E559C" d="M335.649,69.071c0,1.935,0.009,3.861-0.01,5.795c-0.004,0.523-0.033,1.058-0.129,1.57
		c-0.142,0.791-0.65,1.233-1.461,1.262c-0.834,0.03-1.673,0.025-2.509,0.014c-0.857-0.018-1.416-0.447-1.58-1.303
		c-0.09-0.472-0.146-0.955-0.146-1.435c-0.009-22.228-0.009-44.453,0.003-66.68c0-0.478,0.058-0.964,0.151-1.433
		c0.161-0.786,0.68-1.226,1.481-1.25c0.879-0.026,1.76-0.03,2.639,0.006c0.813,0.034,1.301,0.506,1.432,1.298
		c0.085,0.518,0.118,1.048,0.118,1.573c0.012,7.966,0.01,15.932,0.01,23.898c0,0.474,0,0.948,0,1.579
		c0.301-0.176,0.479-0.225,0.568-0.342c9.236-11.766,27.967-13.012,39.353-3.524c7.388,6.156,11.01,14.028,10.339,23.679
		c-0.476,6.819-3.396,12.521-8.273,17.323c-9.657,9.509-25.081,10.358-35.73,3.16c-2.013-1.358-3.914-2.838-5.433-4.759
		c-0.156-0.2-0.31-0.406-0.462-0.608C335.891,68.952,335.77,69.013,335.649,69.071z M335.653,51.854
		c-0.444,11.341,10.169,21.542,21.712,21.685c12.714,0.154,22.774-10.646,22.915-21.481c0.151-12.086-10.063-22.576-22.086-22.736
		C345.646,29.151,335.299,39.685,335.653,51.854z"/>
	<path fill="#11559C" d="M11.36,53.472c0.089,2.201,0.604,4.189,1.372,6.105c2.613,6.521,6.993,11.303,13.928,13.146
		c7.889,2.097,15.235-0.508,20.42-6.804c1.052-1.276,1.895-2.74,2.738-4.174c0.504-0.857,1.14-1.295,2.12-1.271
		c0.66,0.016,1.321-0.013,1.981,0.008c1.754,0.049,2.484,1.104,1.725,2.725c-0.778,1.666-1.584,3.361-2.67,4.83
		C47.504,75.436,40.15,79.255,30.9,79.003c-6.869-0.188-12.64-3.016-17.453-7.887C7.376,64.97,4.572,57.575,5.168,48.991
		C5.71,41.184,9.176,34.831,15.186,29.8c8.57-7.175,21.561-7.867,30.85-1.555c5.552,3.773,9.58,8.744,11.431,15.307
		c0.685,2.426,1.022,4.9,0.989,7.423c-0.025,1.949-0.555,2.495-2.522,2.495c-14.304,0.005-28.607,0.002-42.911,0.002
		C12.502,53.472,11.98,53.472,11.36,53.472z M11.485,47.779c13.537,0,27.066,0,40.601,0c-0.687-8.233-9.28-18.133-20.155-18.243
		C20.485,29.42,12.457,39.145,11.485,47.779z"/>
	<path fill="#0E559C" d="M97.033,31.095c2.147-2.111,4.379-3.648,6.889-4.738c7.67-3.33,15.43-3.364,23.042-0.034
		c6.472,2.831,10.337,7.96,11.792,14.905c0.635,3.031,0.912,6.09,0.922,9.172c0.028,8.188,0.011,16.375,0.007,24.563
		c0,0.396-0.007,0.795-0.071,1.183c-0.188,1.149-0.546,1.512-1.716,1.627c-0.697,0.07-1.409,0.07-2.109,0.025
		c-1.331-0.086-1.864-0.63-1.996-1.977c-0.034-0.35-0.008-0.703-0.009-1.057c-0.012-8.762,0.005-17.521-0.052-26.279
		c-0.017-2.644-0.356-5.273-1.306-7.768c-2.21-5.811-6.451-9.348-12.46-10.632c-4.949-1.058-9.809-0.657-14.337,1.854
		c-3.975,2.204-6.952,5.287-7.92,9.849c-0.454,2.134-0.623,4.364-0.641,6.55c-0.071,8.892-0.034,17.785-0.038,26.676
		c0,0.396,0.007,0.794-0.014,1.188c-0.047,0.871-0.516,1.441-1.371,1.504c-1.045,0.074-2.104,0.07-3.149-0.016
		c-0.798-0.065-1.228-0.634-1.282-1.438c-0.027-0.396-0.022-0.791-0.022-1.188c-0.001-22.229-0.001-44.461,0-66.688
		c0-0.352-0.02-0.707,0.016-1.056c0.096-0.947,0.634-1.577,1.573-1.667c0.872-0.084,1.763-0.083,2.636-0.007
		c0.949,0.083,1.495,0.697,1.597,1.644c0.042,0.392,0.018,0.792,0.018,1.188C97.033,15.919,97.033,23.358,97.033,31.095z"/>
	<path fill="#13559D" d="M191.605,79.038c-14.571,0.219-27.428-12.215-27.392-27.353c0.037-15.544,12.118-27.792,27.485-27.786
		c15.479,0.008,27.839,12.237,27.794,27.501C219.448,66.724,207.025,79.032,191.605,79.038z M191.888,73.417
		c12.191,0.178,21.891-10.773,21.779-22.174c-0.112-11.421-10.007-21.813-21.951-21.729c-11.617,0.083-21.764,10.219-21.679,22.14
		C170.118,62.985,179.618,73.649,191.888,73.417z"/>
	<path fill="#0E559C" d="M322.084,51.315c0.297,14.984-12.559,27.745-27.789,27.756c-14.816,0.014-27.521-12.396-27.447-27.476
		c0.074-15.627,12.051-27.695,27.487-27.792C309.772,23.708,322.347,36.306,322.084,51.315z M316.294,51.497
		c0.479-11.794-9.761-22.085-21.548-22.177c-12.248-0.095-22.081,10.252-22.161,21.938c-0.081,12.001,9.911,22.181,21.688,22.28
		C306.522,73.64,316.761,62.782,316.294,51.497z"/>
	<path fill="#0E559C" d="M406.959,79.12c-8.891-0.113-15.942-6.184-17.286-14.975c-0.138-0.908-0.238-1.834-0.256-2.754
		c-0.027-1.421,0.445-1.883,1.886-1.943c0.702-0.028,1.407-0.022,2.11-0.004c1.403,0.039,1.887,0.604,2.089,2.006
		c0.243,1.686,0.387,3.443,1.011,5c2.091,5.219,6.74,7.549,12.322,6.932c3.452-0.38,6.081-2.162,8.05-4.95
		c2.734-3.864,2.805-10.919-4.02-13.659c-2.479-0.992-5.088-1.658-7.652-2.422c-2.366-0.708-4.718-1.447-6.766-2.868
		c-4.679-3.248-6.188-7.862-5.32-13.273c1.81-11.329,14.384-15.589,22.853-9.925c3.364,2.25,5.104,5.608,5.893,9.5
		c0.146,0.731,0.281,1.472,0.317,2.214c0.061,1.081-0.516,1.733-1.579,1.909c-0.261,0.042-0.524,0.028-0.789,0.031
		c-3.204,0.04-3.193,0.038-3.887-3.073c-0.172-0.77-0.387-1.535-0.654-2.274c-1.122-3.055-3.312-4.732-6.555-5.153
		c-4.499-0.583-8.598,1.908-9.584,6.17c-0.354,1.542-0.27,3.236-0.107,4.835c0.152,1.563,1.188,2.698,2.525,3.521
		c2.355,1.448,5.011,2.103,7.624,2.857c3.396,0.978,6.661,2.238,9.502,4.416c4.975,3.807,6.964,9.534,5.152,15.588
		c-2.003,6.711-6.771,10.463-13.479,11.91C409.248,78.975,408.092,78.999,406.959,79.12z"/>
	<path fill="#0E559C" d="M253.154,34.676c0-8.758-0.002-17.515,0.002-26.273c0-0.438-0.008-0.886,0.082-1.31
		c0.213-0.993,0.732-1.439,1.734-1.489c0.789-0.04,1.586-0.042,2.375,0c1.09,0.058,1.688,0.644,1.813,1.72
		c0.039,0.348,0.02,0.703,0.02,1.055c0,16.019-0.009,32.038,0.004,48.056c0.002,3.225-0.25,6.416-1.067,9.542
		c-1.7,6.479-5.802,10.604-12.271,12.322c-5.316,1.41-10.479,0.965-15.318-1.739c-5.09-2.839-7.95-7.301-9.021-12.965
		c-0.229-1.199,0.447-2.089,1.684-2.205c0.871-0.082,1.763-0.064,2.638,0c1.051,0.079,1.622,0.725,1.877,1.741
		c0.521,2.062,1.319,4.011,2.604,5.724c2.034,2.719,4.774,4.193,8.153,4.518c3.871,0.373,7.433-0.252,10.431-2.979
		c2.721-2.473,4.146-5.507,4.213-9.179c0.026-1.541,0.051-3.08,0.053-4.621C253.156,49.287,253.154,41.979,253.154,34.676z"/>
	<path fill="#0E559C" d="M74.293,33.517c2.789,0,5.42-0.001,8.051,0c0.88,0.001,1.762-0.029,2.64,0.018
		c1.21,0.064,1.626,0.455,1.875,1.636c0.018,0.086,0.048,0.172,0.05,0.258c0.067,2.621,0.165,3.848-3.309,3.737
		c-2.77-0.088-5.544-0.017-8.316-0.017c-0.294,0-0.59,0-0.992,0c0,0.595,0,1.069,0,1.542c0,11.398,0,22.794-0.001,34.19
		c0,0.438,0.02,0.888-0.058,1.313c-0.191,1.051-0.716,1.514-1.794,1.58c-0.702,0.043-1.41,0.049-2.111,0.006
		c-1.348-0.082-1.799-0.551-1.878-1.877c-0.021-0.353-0.006-0.703-0.006-1.058c0-11.354,0-22.704,0-34.058c0-0.479,0-0.959,0-1.642
		c-1.133,0-2.21,0.005-3.288-0.002c-1.926-0.014-2.444-0.524-2.461-2.413c-0.002-0.263-0.003-0.528,0-0.792
		c0.024-1.854,0.583-2.407,2.467-2.422c1.047-0.009,2.095-0.001,3.282-0.001c0-0.739,0-1.385,0-2.031
		c0-2.596-0.012-5.193,0.005-7.789c0.01-1.607,0.622-2.197,2.246-2.237c0.352-0.008,0.704-0.004,1.056-0.001
		c1.966,0.019,2.532,0.565,2.539,2.5c0.01,2.684,0.002,5.368,0.003,8.053C74.293,32.449,74.293,32.887,74.293,33.517z"/>
	<path fill="#11559C" d="M156.519,51.426c0,7.79,0.001,15.579-0.001,23.371c0,0.438,0.013,0.881-0.032,1.317
		c-0.112,1.092-0.455,1.511-1.544,1.615c-0.912,0.094-1.841,0.034-2.761-0.004c-0.697-0.025-1.153-0.456-1.31-1.107
		c-0.132-0.547-0.198-1.123-0.199-1.688c-0.01-15.624-0.008-31.248-0.008-46.872c0-0.176,0-0.353,0-0.528
		c0.001-0.132-0.006-0.265,0.005-0.396c0.142-1.661,0.863-2.057,3.598-1.979c1.581,0.044,2.236,0.621,2.244,2.107
		c0.021,4.445,0.008,8.891,0.008,13.335C156.519,44.207,156.519,47.817,156.519,51.426z"/>
	<path fill="#FAA920" d="M159.354,13.026c0.017,3.201-2.563,5.787-5.767,5.783c-3.121-0.004-5.7-2.573-5.727-5.703
		c-0.027-3.174,2.587-5.793,5.777-5.789C156.758,7.321,159.337,9.896,159.354,13.026z"/>
	<path fill="none" d="M335.653,51.854c-0.354-12.169,9.993-22.703,22.541-22.536c12.023,0.16,22.237,10.65,22.086,22.736
		c-0.141,10.835-10.201,21.639-22.915,21.482C345.822,73.396,335.209,63.194,335.653,51.854z"/>
	<path fill="none" d="M11.485,47.779c0.972-8.633,9-18.358,20.446-18.243c10.875,0.109,19.468,10.009,20.155,18.243
		C38.551,47.779,25.021,47.779,11.485,47.779z"/>
	<path fill="none" d="M191.888,73.417c-12.27,0.229-21.77-10.432-21.851-21.764c-0.085-11.919,10.062-22.058,21.679-22.141
		c11.944-0.085,21.839,10.307,21.951,21.729C213.779,62.644,204.08,73.595,191.888,73.417z"/>
	<path fill="none" d="M316.294,51.497c0.467,11.285-9.771,22.143-22.021,22.041c-11.777-0.103-21.771-10.279-21.688-22.28
		c0.08-11.685,9.913-22.033,22.161-21.938C306.533,29.412,316.771,39.703,316.294,51.497z"/>
</g>
<line fill="none" stroke="#F8A81F" stroke-width="0.8" stroke-miterlimit="10" x1="5.09" y1="84.776" x2="219.492" y2="84.776"/>
<g>
	<path fill="#F8A81F" d="M219.493,84.37h4.215c2.561,0,4.443,0.517,5.646,1.549c1.203,1.03,1.805,2.642,1.805,4.828
		c0,1.104-0.202,2.048-0.606,2.832c-0.405,0.784-1.012,1.425-1.82,1.922c1.224,0.541,2.142,1.3,2.753,2.276
		c0.611,0.978,0.916,2.172,0.916,3.585c0,2.452-0.636,4.253-1.905,5.399c-1.271,1.149-3.27,1.724-5.996,1.724h-5.008L219.493,84.37
		L219.493,84.37z M221.625,86.67v8.118h1.338c2.199,0,3.733-0.324,4.611-0.971c0.878-0.646,1.314-1.702,1.314-3.171
		c0-1.381-0.425-2.389-1.275-3.023c-0.852-0.637-2.208-0.953-4.075-0.953H221.625L221.625,86.67z M221.625,97.091v9.093h3.126
		c1.834,0,3.19-0.37,4.066-1.108c0.877-0.739,1.314-1.878,1.314-3.413s-0.447-2.68-1.339-3.437
		c-0.892-0.756-2.241-1.135-4.044-1.135H221.625z"/>
	<path fill="#F8A81F" d="M252.46,100.121h-15.446c0.135,1.981,0.809,3.586,2.021,4.809c1.213,1.221,2.729,1.834,4.541,1.834
		c1.286,0,2.442-0.355,3.47-1.063c1.026-0.709,1.82-1.696,2.379-2.963h2.489c-0.789,2.016-1.896,3.565-3.32,4.642
		c-1.427,1.08-3.078,1.621-4.955,1.621c-2.486,0-4.592-0.944-6.313-2.833s-2.583-4.157-2.583-6.808c0-2.771,0.844-5.063,2.528-6.871
		c1.686-1.812,3.84-2.717,6.461-2.717c2.572,0,4.67,0.941,6.292,2.827c1.622,1.883,2.435,4.334,2.435,7.352v0.171H252.46z
		 M250.032,98.085c-0.414-2.026-1.177-3.553-2.285-4.575c-1.111-1.024-2.558-1.535-4.342-1.535c-1.657,0-3.063,0.55-4.215,1.651
		c-1.149,1.099-1.855,2.587-2.116,4.459H250.032z"/>
	<path fill="#F8A81F" d="M264.949,84.37h6.439c1.772,0,3.264,0.188,4.472,0.562c1.208,0.375,2.272,0.978,3.195,1.805
		c1.297,1.16,2.302,2.579,3.018,4.258c0.715,1.679,1.074,3.473,1.074,5.385c0,2.131-0.394,4.069-1.184,5.82
		c-0.788,1.751-1.903,3.178-3.345,4.281c-0.954,0.718-1.984,1.231-3.095,1.541c-1.109,0.311-2.821,0.464-5.133,0.464h-5.443
		L264.949,84.37L264.949,84.37z M267.143,86.67v19.547h4.619c2.883,0,5.102-0.861,6.656-2.585c1.556-1.723,2.334-4.162,2.334-7.319
		c0-1.579-0.264-3.037-0.794-4.374c-0.527-1.336-1.286-2.457-2.27-3.363c-0.736-0.685-1.562-1.173-2.474-1.466
		c-0.913-0.291-2.24-0.439-3.981-0.439H267.143L267.143,86.67z"/>
	<path fill="#F8A81F" d="M288.396,88.131h-2.192V84.37h2.192V88.131z M286.203,108.486v-18.22h2.192v18.22H286.203z"/>
	<path fill="#F8A81F" d="M291.173,102.756h2.256v0.066c0,1.137,0.303,2.079,0.915,2.823c0.611,0.745,1.369,1.118,2.271,1.118
		c0.86,0,1.577-0.287,2.146-0.861c0.569-0.572,0.854-1.297,0.854-2.168c0-0.872-0.225-1.574-0.676-2.104
		c-0.451-0.529-1.268-1.028-2.45-1.49c-1.897-0.72-3.137-1.453-3.717-2.204c-0.582-0.751-0.871-1.756-0.871-3.015
		c0-1.425,0.485-2.633,1.455-3.627c0.968-0.993,2.143-1.491,3.522-1.491c1.462,0,2.622,0.443,3.483,1.327
		c0.86,0.883,1.322,2.112,1.385,3.691h-2.349c-0.053-0.861-0.31-1.529-0.77-2.005c-0.463-0.474-1.092-0.711-1.892-0.711
		c-0.715,0-1.311,0.259-1.789,0.77c-0.478,0.513-0.716,1.151-0.716,1.913c0,0.541,0.099,0.997,0.297,1.367
		c0.197,0.371,0.523,0.704,0.979,1.003c0.417,0.275,1.021,0.542,1.813,0.796c0.792,0.255,1.325,0.443,1.595,0.563
		c1.067,0.485,1.853,1.132,2.354,1.937c0.503,0.807,0.755,1.833,0.755,3.081c0,1.568-0.514,2.864-1.541,3.893
		c-1.023,1.028-2.326,1.54-3.901,1.54c-1.608,0-2.9-0.559-3.873-1.68C291.738,106.164,291.225,104.655,291.173,102.756z"/>
	<path fill="#F8A81F" d="M318.662,95.865c-0.674-1.327-1.494-2.306-2.465-2.94c-0.968-0.634-2.123-0.953-3.46-0.953
		c-1.762,0-3.258,0.713-4.486,2.137c-1.23,1.425-1.846,3.187-1.846,5.282c0,2.099,0.617,3.854,1.854,5.262
		c1.233,1.407,2.759,2.111,4.571,2.111c1.327,0,2.5-0.349,3.516-1.044c1.017-0.693,1.789-1.673,2.316-2.93h2.427
		c-0.663,1.976-1.706,3.504-3.125,4.586c-1.421,1.083-3.097,1.624-5.025,1.624c-2.477,0-4.568-0.937-6.276-2.809
		c-1.704-1.869-2.558-4.126-2.558-6.766c0-2.693,0.862-4.978,2.588-6.85c1.728-1.87,3.831-2.805,6.307-2.805
		c1.856,0,3.494,0.532,4.909,1.599c1.414,1.065,2.475,2.563,3.181,4.496L318.662,95.865L318.662,95.865z"/>
	<path fill="#F8A81F" d="M323.664,99.391c0-2.671,0.86-4.956,2.581-6.857c1.722-1.897,3.76-2.848,6.111-2.848
		c2.479,0,4.592,0.934,6.339,2.8c1.747,1.863,2.621,4.091,2.621,6.674c0,2.717-0.855,5.036-2.567,6.957
		c-1.71,1.92-3.784,2.883-6.223,2.883c-2.477,0-4.574-0.942-6.29-2.825C324.522,104.294,323.664,102.033,323.664,99.391z
		 M325.965,99.359c0,2.097,0.628,3.858,1.883,5.275c1.255,1.419,2.815,2.129,4.68,2.129c1.838,0,3.376-0.71,4.621-2.129
		c1.244-1.42,1.865-3.189,1.865-5.31c0-2.151-0.631-3.921-1.889-5.308c-1.26-1.385-2.86-2.079-4.8-2.079
		c-1.742,0-3.237,0.711-4.486,2.138C326.588,95.501,325.965,97.262,325.965,99.359z"/>
	<path fill="#F8A81F" d="M350.906,108.486h-2.009l-6.688-18.22h2.317l5.475,14.692l5.522-14.692h2.379L350.906,108.486z"/>
	<path fill="#F8A81F" d="M376.515,100.121h-15.446c0.137,1.981,0.81,3.586,2.023,4.809c1.213,1.221,2.728,1.834,4.541,1.834
		c1.286,0,2.442-0.355,3.469-1.063c1.026-0.709,1.82-1.696,2.379-2.963h2.489c-0.788,2.016-1.895,3.565-3.319,4.642
		c-1.427,1.08-3.078,1.621-4.955,1.621c-2.488,0-4.594-0.944-6.315-2.833c-1.721-1.889-2.581-4.157-2.581-6.808
		c0-2.771,0.844-5.063,2.526-6.871c1.687-1.812,3.842-2.717,6.463-2.717c2.572,0,4.669,0.941,6.292,2.827
		c1.622,1.883,2.435,4.334,2.435,7.352V100.121L376.515,100.121z M374.088,98.085c-0.416-2.026-1.179-3.553-2.287-4.575
		c-1.109-1.024-2.557-1.535-4.341-1.535c-1.658,0-3.063,0.55-4.214,1.651c-1.151,1.099-1.857,2.587-2.116,4.459H374.088z"/>
	<path fill="#F8A81F" d="M381.546,108.486h-2.225v-18.22h2.069v2.103c0.539-0.805,1.128-1.396,1.766-1.772
		c0.637-0.376,1.382-0.574,2.232-0.597l0.016,2.533c-1.379,0.135-2.366,0.572-2.962,1.319c-0.597,0.745-0.895,1.957-0.895,3.636
		v10.998H381.546z"/>
	<path fill="#F8A81F" d="M404.418,100.121h-15.445c0.135,1.981,0.809,3.586,2.021,4.809c1.214,1.221,2.729,1.834,4.543,1.834
		c1.286,0,2.442-0.355,3.468-1.063c1.027-0.709,1.82-1.696,2.379-2.963h2.489c-0.788,2.016-1.896,3.565-3.32,4.642
		c-1.426,1.08-3.076,1.621-4.953,1.621c-2.488,0-4.594-0.944-6.315-2.833s-2.581-4.157-2.581-6.808c0-2.771,0.843-5.063,2.526-6.871
		c1.686-1.812,3.841-2.717,6.462-2.717c2.573,0,4.67,0.941,6.292,2.827c1.621,1.883,2.435,4.334,2.435,7.352L404.418,100.121
		L404.418,100.121z M401.991,98.085c-0.415-2.026-1.178-3.553-2.286-4.575c-1.109-1.024-2.557-1.535-4.342-1.535
		c-1.656,0-3.063,0.55-4.215,1.651c-1.15,1.099-1.854,2.587-2.115,4.459H401.991z"/>
	<path fill="#F8A81F" d="M421.643,93.148v-4.058V84.37h2.209v24.116h-2.209v-2.75c-0.767,1.016-1.721,1.809-2.86,2.379
		c-1.141,0.57-2.351,0.853-3.625,0.853c-2.466,0-4.546-0.926-6.235-2.783c-1.689-1.854-2.535-4.129-2.535-6.824
		c0-2.671,0.836-4.92,2.504-6.748c1.67-1.828,3.76-2.74,6.269-2.74c1.35,0,2.574,0.278,3.679,0.836
		C419.942,91.268,420.876,92.079,421.643,93.148z M421.706,99.56c0-2.076-0.646-3.85-1.936-5.318
		c-1.293-1.466-2.809-2.202-4.552-2.202c-1.802,0-3.348,0.697-4.634,2.095c-1.287,1.396-1.929,3.104-1.929,5.125
		c0,2.131,0.645,3.921,1.937,5.367c1.291,1.448,2.854,2.171,4.689,2.171c1.689,0,3.183-0.724,4.48-2.171
		C421.058,103.181,421.706,101.491,421.706,99.56z"/>
</g>
</svg>
